<svg width="24" height="24" viewBox="0 0 24 24" fill="none" xmlns="http://www.w3.org/2000/svg">
<g opacity="0.3" clip-path="url(#clip0_40_186)">
<path d="M15.7901 8.15H10.8801C10.5046 8.15 10.2001 7.84555 10.2001 7.47C10.2001 7.09445 10.5046 6.79 10.8801 6.79H15.7901C16.1657 6.79 16.4701 7.09445 16.4701 7.47C16.4701 7.84555 16.1657 8.15 15.7901 8.15Z" fill="black"/>
<path d="M10.9101 12.66H14.4101C14.7857 12.66 15.0901 12.9644 15.0901 13.34C15.0901 13.7156 14.7857 14.02 14.4101 14.02H10.9101C10.5346 14.02 10.2301 13.7156 10.2301 13.34C10.2301 12.9644 10.5346 12.66 10.9101 12.66Z" fill="black"/>
<path d="M17.1901 9.72H10.8801C10.6156 9.68799 10.3563 9.8111 10.214 10.0363C10.0716 10.2615 10.0716 10.5485 10.214 10.7737C10.3563 10.9989 10.6156 11.122 10.8801 11.09H17.1901C17.5366 11.0481 17.7972 10.754 17.7972 10.405C17.7972 10.056 17.5366 9.76194 17.1901 9.72Z" fill="black"/>
<path fill-rule="evenodd" clip-rule="evenodd" d="M11.9901 2H16.0701C18.6935 2 20.8201 4.12665 20.8201 6.75V14.07C20.8385 16.0597 19.6123 17.8491 17.7501 18.55C17.5584 20.6135 15.8225 22.1889 13.7501 22.18H8.75011C6.12675 22.18 4.00011 20.0534 4.00011 17.43V9.21C3.98541 7.1755 5.50025 5.45409 7.52011 5.21C8.17538 3.29794 9.9689 2.00998 11.9901 2ZM8.71011 20.64H13.7101C14.8279 20.6408 15.8093 19.8966 16.1101 18.82H11.9901C9.36675 18.82 7.24011 16.6934 7.24011 14.07V6.79C6.18646 7.10344 5.46303 8.07073 5.46011 9.17V17.39C5.46011 19.1849 6.91518 20.64 8.71011 20.64ZM19.3201 14.07C19.3201 15.8649 17.865 17.32 16.0701 17.32H11.9901C10.1975 17.3145 8.7456 15.8626 8.74011 14.07V6.75C8.7456 4.95735 10.1975 3.50549 11.9901 3.5H16.0701C17.865 3.5 19.3201 4.95507 19.3201 6.75V14.07Z" fill="black"/>
</g>
<defs>
<clipPath id="clip0_40_186">
<rect width="24" height="24" fill="white"/>
</clipPath>
</defs>
</svg>
