<svg width="20" height="20" viewBox="0 0 20 20" fill="none" xmlns="http://www.w3.org/2000/svg">
<g id="Interface essential/emai-1">
<g id="Icon">
<path fill-rule="evenodd" clip-rule="evenodd" d="M11.0748 2.11905L16.7832 6.12739C17.6706 6.75111 18.1991 7.76766 18.1998 8.85239V14.7941C18.1976 15.7378 17.8206 16.642 17.1517 17.3077C16.4829 17.9735 15.5769 18.3463 14.6332 18.3441H5.23317C4.28944 18.3463 3.38349 17.9735 2.71461 17.3077C2.04573 16.642 1.66871 15.7378 1.6665 14.7941V8.85239C1.66721 7.76766 2.19569 6.75111 3.08317 6.12739L8.7915 2.11905C9.43309 1.51582 10.4333 1.51582 11.0748 2.11905ZM16.2679 16.4239C16.7023 15.9925 16.9476 15.4063 16.9498 14.7941V8.85239C16.9382 8.18772 16.61 7.56853 16.0665 7.18572L10.3582 3.17739L10.2665 3.11072C10.1787 3.02114 10.0586 2.97065 9.93317 2.97065C9.80775 2.97065 9.68761 3.02114 9.59984 3.11072L9.50817 3.17739L3.79984 7.18572C3.25635 7.56853 2.92818 8.18772 2.9165 8.85239V14.7941C2.91871 15.4063 3.16403 15.9925 3.59849 16.4239C4.03295 16.8552 4.62096 17.0963 5.23317 17.0941H14.6332C15.2454 17.0963 15.8334 16.8552 16.2679 16.4239Z" fill="black"/>
<path d="M14.9915 9.17739L10.3748 12.4024C10.2382 12.5391 10.0505 12.6124 9.85737 12.6045C9.66422 12.5965 9.4832 12.5082 9.35817 12.3607L4.87483 9.17739C4.69474 9.02163 4.4418 8.98173 4.22251 9.07449C4.00322 9.16725 3.85568 9.37655 3.84202 9.61425C3.82836 9.85196 3.95095 10.0768 4.15817 10.1941L8.57483 13.3441C8.93699 13.6812 9.41336 13.8688 9.90817 13.8691C10.3735 13.8573 10.8172 13.6697 11.1498 13.3441L15.7082 10.1607C15.9702 9.96676 16.0392 9.60394 15.8665 9.32739C15.6645 9.04713 15.2753 8.98039 14.9915 9.17739Z" fill="black"/>
</g>
</g>
</svg>
