<svg width="20" height="20" viewBox="0 0 20 20" fill="none" xmlns="http://www.w3.org/2000/svg">
<path d="M11.219 11.585C11.219 10.821 10.5997 10.2016 9.8357 10.2016C9.07171 10.2016 8.45237 10.821 8.45237 11.585C8.45123 11.9089 8.56658 12.2224 8.77737 12.4683C8.98976 12.6896 9.06339 13.0098 8.96903 13.3016L8.79403 13.8183C8.72636 14.0507 8.77109 14.3013 8.91498 14.4959C9.05887 14.6904 9.28539 14.8066 9.52737 14.81H10.144C10.394 14.8099 10.6286 14.6892 10.7741 14.4859C10.9196 14.2826 10.958 14.0216 10.8774 13.785L10.669 13.2683C10.5747 12.9764 10.6483 12.6563 10.8607 12.435C11.0762 12.2025 11.2031 11.9016 11.219 11.585Z" fill="black"/>
<path fill-rule="evenodd" clip-rule="evenodd" d="M13.794 6.76831V4.16831C13.7945 3.48908 13.5186 2.83889 13.0297 2.36733C12.5408 1.89576 11.8811 1.6434 11.2024 1.66831H8.46904C7.79026 1.6434 7.13057 1.89576 6.64171 2.36733C6.15285 2.83889 5.87691 3.48908 5.87737 4.16831V6.76831C4.15113 7.37609 3.1013 9.12581 3.37737 10.935L4.16904 15.7433C4.5595 17.6587 6.26477 19.0201 8.21904 18.9766H11.4524C13.4206 19.026 15.1381 17.65 15.519 15.7183L16.3107 10.91C16.5718 9.1049 15.5164 7.36812 13.794 6.76831ZM7.12737 4.16831C7.15892 3.458 7.75859 2.90675 8.46903 2.93498H11.2024C11.9128 2.90675 12.5125 3.458 12.544 4.16831V6.47664H7.12737V4.16831ZM14.0024 15.4683L14.8357 10.6433C14.9184 10.0191 14.72 9.39035 14.294 8.92664C13.776 8.33919 13.0272 8.00739 12.244 8.01831H7.42737C6.64686 8.00318 5.89846 8.3287 5.37737 8.90998C4.96155 9.38482 4.77834 10.0199 4.87737 10.6433L5.66903 15.4683C5.92741 16.6569 7.00378 17.4871 8.21903 17.435H11.4524C12.6676 17.4871 13.744 16.6569 14.0024 15.4683Z" fill="black"/>
</svg>
